<?xml version="1.0" encoding="UTF-8" standalone="no"?>
<svg width="162px" height="26px" viewBox="0 0 162 26" version="1.1" xmlns="http://www.w3.org/2000/svg" xmlns:xlink="http://www.w3.org/1999/xlink" xmlns:sketch="http://www.bohemiancoding.com/sketch/ns">
    <!-- Generator: Sketch 3.4.2 (15857) - http://www.bohemiancoding.com/sketch -->
    <title>greenpeace logo</title>
    <desc>Created with Sketch.</desc>
    <defs>
        <path id="path-1" d="M0,26 L161.804,26 L161.804,0.498 L0,0.498"></path>
        <path id="path-3" d="M0,26 L161.804,26 L161.804,0.498 L0,0.498"></path>
    </defs>
    <g id="Page-1" stroke="none" stroke-width="1" fill="none" fill-rule="evenodd" sketch:type="MSPage">
        <g id="iPhone-6-Copy" sketch:type="MSArtboardGroup" transform="translate(-107.000000, -617.000000)">
            <g id="greenpeace-logo" sketch:type="MSLayerGroup" transform="translate(107.000000, 617.000000)">
                <g id="Group-4">
                    <mask id="mask-2" sketch:name="Clip 2" fill="white">
                        <use xlink:href="#path-1"></use>
                    </mask>
                    <g id="Clip-2"></g>
                    <path d="M14.126,5.81 C14.126,5.808 14.125,5.807 14.124,5.805 L14.126,5.81" id="Fill-1" fill="#007E41" sketch:type="MSShapeGroup" mask="url(#mask-2)"></path>
                    <path d="M20.077,11.794 C19.852,11.221 19.395,10.783 18.821,10.592 C18.478,10.477 17.762,10.239 12.896,10.903 C7.521,11.638 7.339,12 6.942,12.794 C6.498,13.684 6.858,14.765 7.747,15.21 C8.225,15.448 8.759,15.455 9.219,15.271 C9.615,15.113 9.377,15.178 9.356,15.186 C10.12,14.907 13.746,14.381 16.061,14.155 C16.142,14.146 16.046,14.25 16.008,14.362 C15.842,14.859 15.669,15.529 15.5,15.737 C15.392,15.871 15.292,16.026 14.984,16.145 C13.127,16.861 9.756,18.039 8.085,18.101 C6.159,18.172 4.593,17.206 3.788,15.449 C3.547,14.923 3.409,14.124 4.213,12.192 C4.918,10.5 7.522,8.252 8.635,7.293 C8.84,7.115 9.017,6.962 9.156,6.837 C11.119,5.07 12.56,4.3 13.312,4.135 C13.571,4.442 13.937,5.182 14.124,5.805 C14.404,6.759 15.404,7.306 16.358,7.026 C17.312,6.747 17.859,5.747 17.58,4.793 C17.274,3.751 16.066,0.359 13.357,0.502 C11.565,0.596 9.341,1.827 6.748,4.162 C6.637,4.261 6.473,4.403 6.283,4.567 C4.759,5.882 1.923,8.33 0.89,10.807 C-0.16,13.329 -0.276,15.223 0.516,16.949 C1.936,20.049 4.816,21.824 8.219,21.698 C10.002,21.633 12.684,20.803 14.652,20.107 L14.652,24.199 C14.652,25.194 15.458,26 16.452,26 C17.446,26 18.252,25.194 18.252,24.199 L18.252,17.952 C20.695,13.41 20.282,12.32 20.077,11.794" id="Fill-3" fill="#007E41" sketch:type="MSShapeGroup" mask="url(#mask-2)"></path>
                </g>
                <path d="M22.836,10.407 L22.837,10.407 L22.836,10.407" id="Fill-5" fill="#007E41" sketch:type="MSShapeGroup"></path>
                <path d="M29.556,6.43 C29.638,7.741 29.269,9.046 29.036,9.346 C28.638,9.687 27.491,10.26 26.761,10.554 C26.899,9.836 27.035,9.193 27.123,8.967 C27.44,8.175 27.71,6.51 27.88,5.272 C28.13,5.232 28.332,5.21 28.481,5.204 C28.866,5.331 29.531,6.031 29.556,6.43 L29.556,6.43 Z M30.332,13.617 L30.238,13.535 C30.909,13.162 31.5,12.777 31.847,12.469 C33.563,10.943 33.85,7.791 33.748,6.168 C33.588,3.608 30.966,1 28.552,1 C27.148,1 24.356,1.725 23.811,1.87 C22.69,2.169 22.024,3.32 22.323,4.44 C22.553,5.305 23.292,5.894 24.132,5.982 C24.004,6.757 23.875,7.395 23.781,7.631 C23.565,8.169 23.37,9.084 23.121,10.432 C23.026,10.424 22.929,10.416 22.836,10.407 C21.681,10.306 20.662,11.16 20.56,12.315 C20.463,13.422 21.246,14.395 22.328,14.566 C22.102,16.026 22.118,19.155 22.152,21.032 C22.171,22.027 22.992,22.817 23.985,22.799 C24.979,22.781 25.77,21.96 25.752,20.967 C25.718,19.151 25.736,17.019 25.806,15.854 L27.74,16.929 L32.272,20.882 C33.146,21.645 34.472,21.554 35.235,20.68 C35.997,19.806 35.907,18.479 35.033,17.717 L30.332,13.617 L30.332,13.617 Z" id="Fill-6" fill="#007E41" sketch:type="MSShapeGroup"></path>
                <path d="M48.902,6.636 C50.192,6.332 50.992,5.04 50.688,3.75 C50.385,2.46 49.093,1.66 47.803,1.963 L38.803,4.363 C37.512,4.667 36.712,5.959 37.016,7.249 C37.124,7.707 37.36,8.098 37.672,8.405 C37.612,9.59 37.53,10.647 37.443,11.133 C37.255,11.451 37.158,11.823 37.161,12.216 C37.129,12.326 37.097,12.438 37.064,12.552 C36.294,15.248 36.057,16.282 36.173,17.097 C36.41,18.754 38.741,20.961 40.243,21.337 C41.155,21.564 44.256,21.863 45.562,21.536 C46.687,21.256 47.371,20.115 47.09,18.99 C46.808,17.864 45.668,17.181 44.543,17.463 C44.566,17.456 44.579,17.454 44.579,17.454 C44.06,17.545 42.04,17.415 41.366,17.281 C41.106,17.133 40.656,16.709 40.397,16.387 C40.505,15.841 40.762,14.908 40.963,14.197 L47.482,13.796 C48.64,13.724 49.52,12.728 49.448,11.57 C49.377,10.413 48.381,9.532 47.223,9.603 L41.788,9.939 C41.823,9.462 41.852,8.975 41.874,8.51 L48.902,6.636" id="Fill-7" fill="#007E41" sketch:type="MSShapeGroup"></path>
                <path d="M65.989,3.75 C65.685,2.46 64.393,1.66 63.103,1.963 L52.903,4.363 C51.612,4.667 50.812,5.959 51.116,7.249 C51.224,7.707 51.46,8.098 51.772,8.405 C51.712,9.59 51.63,10.647 51.543,11.133 C51.355,11.451 51.257,11.824 51.261,12.217 C51.229,12.327 51.198,12.438 51.165,12.552 C50.394,15.248 50.157,16.282 50.273,17.097 C50.51,18.754 52.841,20.961 54.343,21.337 C55.256,21.564 58.356,21.863 59.662,21.536 C60.787,21.256 61.471,20.115 61.19,18.99 C60.909,17.864 59.769,17.181 58.643,17.463 C58.666,17.456 58.679,17.454 58.679,17.454 C58.158,17.545 56.123,17.414 55.457,17.279 C55.096,17.083 54.78,16.76 54.597,16.584 C54.482,16.473 54.497,16.365 54.56,16.091 C54.678,15.583 54.865,14.9 55.025,14.332 C55.039,14.285 55.051,14.243 55.063,14.198 L55.162,14.192 L61.582,13.796 C62.74,13.724 63.62,12.728 63.548,11.57 C63.477,10.413 62.481,9.532 61.323,9.603 L55.888,9.939 C55.922,9.484 55.949,9.019 55.971,8.572 L64.202,6.636 C65.493,6.332 66.292,5.04 65.989,3.75" id="Fill-8" fill="#007E41" sketch:type="MSShapeGroup"></path>
                <g id="Group-16">
                    <mask id="mask-4" sketch:name="Clip 10" fill="white">
                        <use xlink:href="#path-3"></use>
                    </mask>
                    <g id="Clip-10"></g>
                    <path d="M70.977,1.958 C70.984,1.976 71.001,2.014 71.021,2.072 C71.022,2.075 71.024,2.078 71.026,2.082 L70.977,1.958" id="Fill-9" fill="#007E41" sketch:type="MSShapeGroup" mask="url(#mask-4)"></path>
                    <path d="M77.9,1.5 C76.907,1.474 76.08,2.257 76.053,3.252 L75.754,11.821 C75.739,12.173 75.716,12.631 75.689,13.142 C75.501,12.755 75.341,12.436 75.233,12.237 C75.086,11.969 74.86,11.654 74.438,11.074 C73.832,10.239 72.915,8.977 72.356,7.881 C72.007,7.197 71.704,6.382 71.465,5.652 C71.462,3.521 71.147,2.419 71.021,2.072 C70.622,0.989 69.421,0.431 68.335,0.826 C67.245,1.222 66.683,2.427 67.079,3.517 L67.061,3.465 C67.064,3.474 67.332,4.378 67.254,6.419 C67.158,8.928 66.863,12.409 66.508,13.919 C66.087,15.707 65.686,18.904 65.669,19.039 C65.525,20.19 66.341,21.239 67.492,21.383 C68.643,21.527 69.692,20.711 69.836,19.561 C69.84,19.529 70.227,16.45 70.597,14.881 C70.745,14.25 70.877,13.396 70.993,12.451 C71.184,12.718 71.366,12.969 71.526,13.19 C71.743,13.488 72.013,13.86 72.078,13.971 C72.539,14.815 74.353,18.785 75.013,20.242 C75.078,20.387 75.165,20.514 75.261,20.632 C75.278,21.561 75.997,22.337 76.94,22.396 C77.933,22.458 78.787,21.704 78.849,20.711 L78.849,20.712 C78.866,20.449 79.251,14.269 79.351,11.978 L79.652,3.347 C79.679,2.354 78.895,1.526 77.9,1.5" id="Fill-11" fill="#007E41" sketch:type="MSShapeGroup" mask="url(#mask-4)"></path>
                    <path d="M89.087,9.118 L89.32,5.375 C90.184,5.37 91.202,5.438 92.275,5.581 C92.773,5.647 93.596,5.963 93.719,6.211 C93.835,6.443 93.693,7.087 93.525,7.382 C92.493,7.976 90.46,8.897 89.633,9.024 C89.477,9.048 89.29,9.081 89.087,9.118 L89.087,9.118 Z M95.834,10.9 C97.959,9.625 98.066,6.377 97.936,5.339 C97.672,3.217 94.749,1.673 92.83,1.418 C91.343,1.219 88.547,0.961 86.544,1.462 C84.856,1.884 81.574,3.075 81.436,3.126 C80.346,3.522 79.783,4.727 80.179,5.817 C80.576,6.907 81.78,7.469 82.871,7.073 C83.409,6.877 84.566,6.468 85.668,6.107 L85.432,9.884 C85.013,9.978 84.725,10.043 84.685,10.052 C83.555,10.311 82.848,11.437 83.105,12.567 C83.329,13.545 84.2,14.202 85.162,14.196 L85.155,14.31 C85.054,16.331 85.053,20.906 85.053,21.1 C85.053,22.094 85.859,22.899 86.853,22.899 C87.847,22.899 88.652,22.094 88.652,21.1 C88.652,21.053 88.654,16.422 88.751,14.489 L88.815,13.451 C89.403,13.33 89.935,13.227 90.272,13.175 C92.088,12.895 94.984,11.41 95.834,10.9 L95.834,10.9 Z" id="Fill-12" fill="#007E41" sketch:type="MSShapeGroup" mask="url(#mask-4)"></path>
                    <path d="M106.458,16.989 C105.568,16.545 104.488,16.905 104.043,17.794 C104.061,17.76 104.069,17.744 104.069,17.744 C104.004,17.854 103.631,18.399 102.652,18.399 C100.674,18.399 99.76,18.209 99.393,17.719 C99.104,17.336 99.096,16.189 99.528,14.861 C100.2,14.768 101.064,14.697 101.508,14.772 C102.659,14.963 104.498,14.699 106.904,14.244 C107.072,14.212 107.23,14.182 107.298,14.171 C108.144,14.03 109.191,13.528 109.492,13.378 C110.529,12.859 110.95,11.598 110.431,10.56 C109.912,9.523 108.651,9.103 107.614,9.621 L107.615,9.62 C107.261,9.796 106.768,9.996 106.6,10.029 C106.494,10.047 106.339,10.076 106.123,10.117 C103.321,10.647 102.459,10.664 102.194,10.628 C101.938,10.585 101.665,10.565 101.388,10.554 C101.783,9.689 102.186,8.817 102.539,8.056 C102.602,8.046 102.663,8.045 102.725,8.03 L107.542,6.851 C109.128,6.636 111.848,5.662 112.688,5.349 C113.931,4.888 114.564,3.506 114.103,2.264 C113.642,1.021 112.26,0.388 111.018,0.85 C109.51,1.409 107.436,2.063 106.869,2.106 L106.673,2.122 L106.482,2.168 L101.582,3.368 C100.565,3.617 99.869,4.482 99.773,5.468 C99.211,6.672 97.827,9.646 96.941,11.662 C96.774,11.899 96.655,12.169 96.597,12.458 C96.457,12.786 96.344,13.064 96.268,13.268 C95.795,14.527 94.873,17.693 96.513,19.879 C97.98,21.836 100.452,22 102.652,22 C105.268,22 106.781,20.368 107.263,19.404 C107.707,18.515 107.348,17.434 106.458,16.989" id="Fill-13" fill="#007E41" sketch:type="MSShapeGroup" mask="url(#mask-4)"></path>
                    <path d="M118,9.252 C118.628,7.829 119.469,6.181 119.469,6.181 L119.581,6.382 C119.581,6.382 119.819,8.685 119.924,11.132 L117.088,11.31 C117.366,10.683 117.668,10.004 118,9.252 L118,9.252 Z M121.706,2.042 C120.936,1.4 120.126,1.174 119.297,1.368 C117.8,1.719 116.727,3.221 114.706,7.797 C114.022,9.345 113.461,10.605 112.992,11.649 C111.974,11.978 111.263,12.956 111.333,14.074 C111.351,14.356 111.425,14.617 111.529,14.862 C111.292,15.374 111.103,15.777 110.945,16.113 L110.747,16.538 C110.251,17.601 109.305,19.35 109.295,19.367 C108.822,20.241 109.146,21.334 110.021,21.807 C110.895,22.281 111.987,21.956 112.461,21.081 C112.502,21.007 113.468,19.221 114.01,18.061 L114.205,17.643 C114.377,17.276 114.584,16.834 114.85,16.259 L119.985,15.937 C119.98,18.151 119.954,20.241 119.953,20.276 C119.94,21.27 120.735,22.086 121.729,22.099 C122.725,22.112 123.54,21.316 123.553,20.323 C123.556,20.086 123.627,14.481 123.553,11.848 C123.329,4.026 122.552,2.746 121.706,2.042 L121.706,2.042 Z" id="Fill-14" fill="#007E41" sketch:type="MSShapeGroup" mask="url(#mask-4)"></path>
                    <path d="M161.789,3.632 C161.641,2.314 160.453,1.366 159.136,1.514 C158.935,1.537 154.188,2.07 153.114,2.224 L150.902,2.546 C149.572,2.742 147.563,3.037 147.322,3.066 C146.65,3.145 145.445,3.35 144.799,3.463 C143.933,3.403 143.085,3.879 142.723,4.722 C142.721,4.727 142.72,4.73 142.718,4.733 C142.631,4.889 142.561,5.052 142.51,5.224 C141.896,6.68 141.725,7.193 141.666,7.438 C141.611,7.607 141.404,8.174 141.219,8.686 C140.868,9.647 140.52,10.614 140.209,11.514 C140.099,11.72 140.018,11.942 139.981,12.182 C139.65,13.168 139.385,14.036 139.251,14.656 C139.196,14.908 139.177,15.142 139.154,15.377 C139.033,15.301 138.904,15.234 138.765,15.183 C137.678,14.776 137.23,14.859 136.063,16.412 L136.063,16.408 C136.056,16.429 134.578,17.074 133.115,16.774 C132.695,16.689 131.735,16.314 131.353,16.1 C130.754,15.762 129.674,15.312 128.879,14.563 C128.586,14.286 128.189,13.131 128.4,11.87 C128.489,11.332 129.06,10.402 129.06,10.402 C130.165,9.089 131.335,8.168 133.095,7.226 C134.321,6.568 134.766,6.837 134.879,7.024 C134.99,7.212 134.766,7.887 134.766,7.887 C134.653,9.5 134.516,9.732 135.173,10.688 C135.829,11.645 137.136,11.887 138.093,11.23 C138.677,10.829 139.22,10.022 139.802,8.691 C140.4,7.323 140.281,5.547 139.506,4.271 C138.906,3.282 137.953,2.675 136.894,2.604 C136.765,2.595 136.612,2.58 136.451,2.564 C135.264,2.442 133.47,2.26 131.111,3.523 C128.928,4.693 127.375,5.915 125.947,7.583 C125.54,7.972 124.267,9.317 123.956,11.179 C123.699,12.723 123.556,15.585 125.489,17.404 C126.66,18.507 128.218,19.379 129.593,20.15 C129.973,20.363 130.331,20.565 130.664,20.76 C132.344,21.748 134.094,22.065 136.339,21.783 C138.053,21.568 139.135,19.861 139.729,18.527 C139.922,18.899 140.111,19.171 140.234,19.324 C141.749,21.593 144.687,21.6 146.653,21.6 C149.406,21.6 151.526,19.979 151.76,19.794 C152.668,19.073 152.819,17.752 152.098,16.844 C151.377,15.936 150.056,15.783 149.147,16.505 L149.16,16.494 C148.832,16.746 147.743,17.399 146.653,17.399 C144.865,17.399 143.876,17.258 143.71,16.979 L143.602,16.795 L143.508,16.692 C143.464,16.632 143.206,16.238 143.356,15.543 C143.412,15.286 143.512,14.936 143.633,14.539 C143.938,14.525 144.227,14.509 144.428,14.492 C145.03,14.441 147.706,14.3 148.053,14.299 L151.637,14.249 C152.797,14.23 153.722,13.275 153.703,12.116 C153.685,10.956 152.729,10.031 151.569,10.05 L148.053,10.1 C147.661,10.1 146.186,10.176 145.122,10.239 C145.136,10.203 145.151,10.159 145.164,10.124 C145.576,8.996 145.691,8.673 145.746,8.439 C145.767,8.376 145.802,8.28 145.852,8.152 C146.518,8.037 147.424,7.887 147.884,7.833 C148.147,7.802 149.526,7.6 151.6,7.295 L153.793,6.975 C154.596,6.86 157.989,6.473 159.672,6.284 C160.988,6.137 161.937,4.949 161.789,3.632" id="Fill-15" fill="#007E41" sketch:type="MSShapeGroup" mask="url(#mask-4)"></path>
                </g>
            </g>
        </g>
    </g>
</svg>