<?xml version="1.0" encoding="UTF-8" standalone="no"?>
<svg width="74px" height="67px" viewBox="0 0 74 67" version="1.1" xmlns="http://www.w3.org/2000/svg" xmlns:xlink="http://www.w3.org/1999/xlink" xmlns:sketch="http://www.bohemiancoding.com/sketch/ns">
    <!-- Generator: Sketch 3.4.2 (15857) - http://www.bohemiancoding.com/sketch -->
    <title>Group</title>
    <desc>Created with Sketch.</desc>
    <defs>
        <path id="path-1" d="M0,0.222780919 L74,0.222780919 L74,67 L0,67"></path>
    </defs>
    <g id="Page-1" stroke="none" stroke-width="1" fill="none" fill-rule="evenodd" sketch:type="MSPage">
        <g id="01-home-and-result-screen-copy" sketch:type="MSArtboardGroup" transform="translate(-151.000000, -1670.000000)">
            <g id="Group" sketch:type="MSLayerGroup" transform="translate(151.000000, 1670.000000)">
                <path d="M0,37.9605428 C0.539917197,36.6302495 1.38478981,35.6744933 2.92629936,35.6179102 C3.35710191,35.6022848 3.53880255,35.3072954 3.7263949,35.0108855 C4.23166879,34.213041 4.70159236,33.3917583 5.22854777,32.6090657 C5.60161146,32.0550728 5.68928025,31.5612141 5.52219108,30.862094 C5.0063121,28.7031788 6.58105096,27.0878396 8.85030573,27.4012954 C8.66648408,28.1110693 8.21494268,28.6681399 7.82231847,29.2339703 C7.42238854,29.8104544 7.56944586,30.0767972 8.11619745,30.4309739 C9.84694904,31.5517442 9.82644586,31.5721046 10.9468153,29.8293943 C11.1289873,29.5460057 11.2223121,29.038889 11.5967898,29.0798466 C12.0254713,29.126723 12.0841529,29.655147 12.1817197,30.0107442 C12.6587134,31.7494297 11.7084968,33.4267972 9.97303185,33.6531293 C8.84653503,33.7999138 8.46757962,34.5309951 8.15390446,35.3709809 C8.02263694,35.7232636 9.74419745,37.2761011 10.2289682,37.2363272 C10.9913567,37.1740622 11.6224777,37.3243979 12.1098408,37.950836 C12.3676624,38.2815746 12.7527452,38.1963449 13.0963503,38.1804827 C13.9581911,38.1399986 14.8207389,38.0966735 15.6792803,38.0147583 C16.3730892,37.9479951 16.6285541,38.2375392 16.7437962,38.9200869 C16.873414,39.6895216 16.6530637,39.8758431 15.9175414,39.8265993 C15.0189363,39.7662283 14.1125541,39.8346488 13.209707,39.8251788 C12.6158217,39.8190233 12.0935796,39.9007018 11.5505987,40.2425675 C10.431172,40.9471329 9.11378344,40.3251929 9.04402548,39.0031859 C8.98887898,37.9543873 8.20033121,37.561147 7.68421656,36.9126912 C7.5034586,36.6856488 7.26849682,36.6792565 7.09457325,36.9129279 C6.78678981,37.3265286 6.6336051,37.7207159 6.78254777,38.3144827 C7.36464968,40.6360445 5.97844586,42.2286558 3.50274522,42.1017583 C3.6441465,41.2937336 4.20480255,40.7229314 4.59601274,40.0768431 C4.87622293,39.6135251 4.8583121,39.3736982 4.38579618,39.037041 C2.57444586,37.7460481 2.59047134,37.7259244 1.39775159,39.6113943 C1.21652229,39.897624 1.01620382,40.172253 0.827197452,40.448776 C0.293171975,40.1324792 0.391681529,39.4873378 0,39.1442883 L0,37.9605428 Z" id="Fill-1" fill="#323232" sketch:type="MSShapeGroup"></path>
                <path d="M67.9453389,44.3416654 C68.9422178,44.5838597 69.9098739,44.3556336 70.8047083,43.8196336 C71.0955236,43.6453862 71.7037847,43.3866194 71.2635554,42.9853297 C70.8612688,42.6190788 70.3826255,41.767729 69.6435682,42.4213933 C69.0155108,42.97657 68.5184854,43.6818456 67.9453389,44.3416654 L67.9453389,44.3416654 Z M73.9999057,43.4057961 C72.2102369,44.5464534 70.5817656,46.1518491 68.1791223,45.6063792 C67.5960777,45.4740364 67.2567146,45.6388138 67.0446127,46.1269905 C66.6661287,46.9991742 66.1695745,46.9411707 65.5332688,46.4035134 C65.2052178,46.1267537 64.8305045,45.8985276 64.4560268,45.6859269 C63.6227019,45.2124286 62.8544217,44.7642625 63.8609631,43.7085982 C64.1885427,43.3648385 63.9099822,42.9905382 63.6898675,42.644411 C62.8386318,41.3032272 62.632893,39.8761035 63.1744599,38.3585417 C63.2630713,38.1104286 63.412721,37.8649198 63.2218293,37.5765594 C62.9802688,37.2114922 62.9446828,36.8495028 63.3464981,36.5419657 C63.7384153,36.2417678 64.0089631,36.5469375 64.2868166,36.7306548 C67.5274981,38.8722873 70.7629949,41.0217325 73.9999057,43.169047 L73.9999057,43.4057961 Z" id="Fill-3" fill="#323232" sketch:type="MSShapeGroup"></path>
                <path d="M17.3262516,36.9844261 C16.262914,36.8044968 15.295258,36.6463484 14.3301943,36.4744686 C14.0610605,36.426882 13.7249968,36.4195428 13.5475382,36.2547654 C12.9428121,35.6939067 13.5760541,32.5046594 14.3273662,32.1668184 C14.4706529,32.1021859 14.6113471,32.0169562 14.7624108,31.9875993 C17.1341815,31.5228608 18.4244682,30.1004721 18.7975318,27.6868148 C18.9024045,27.0073449 18.9054682,26.5911399 18.3443408,26.1943484 C17.9611433,25.9235074 17.5784172,25.6204686 17.2866592,25.2577689 C16.8886146,24.7627265 15.8323471,24.6322777 16.0524618,23.881783 C16.3809841,22.7614862 17.0806847,21.7650092 17.8352962,20.8490269 C17.9778758,20.6759633 18.2001115,20.7775286 18.3910032,20.816829 C18.8524427,20.9120021 19.3416911,20.9342565 19.7727293,21.1051894 C21.8713599,21.938783 23.2453089,20.881935 24.5066083,19.3868643 C24.8509204,18.9787088 24.7752707,18.5840481 24.6998567,18.1716311 C24.5443153,17.3200445 24.4238885,16.4492813 24.1441497,15.6367583 C23.8698312,14.8408078 24.2190924,14.5143307 24.8207548,14.1445286 C27.2596911,12.64567 27.3186083,12.5732247 29.1370287,14.7366382 C29.9385382,15.6902636 30.6545,15.974836 31.7213726,15.3966947 C31.7897166,15.3597618 31.8679586,15.3138325 31.9407803,15.315253 C34.3686401,15.3583413 34.9580478,13.7380304 35.0933217,11.7550198 C35.1574236,10.8151258 35.5802134,10.5168219 36.5094554,10.5021435 C39.1055828,10.4609491 39.0817803,10.4292247 40.0810159,12.8383837 C40.3466146,13.4790269 40.2386783,14.437624 40.9211752,14.715094 C42.0750096,15.184094 43.3285318,15.4085322 44.5445828,15.7165428 C44.8033471,15.7821223 44.9798631,15.5669173 45.1370541,15.393617 C45.4542643,15.0441753 45.7363599,14.659458 46.0731306,14.3315604 C46.6163471,13.8033731 46.9073981,12.6373837 47.6622452,12.7964792 C48.863449,13.0500375 49.9376274,13.8268113 50.9550096,14.5758855 C51.1315255,14.7058608 51.0858057,14.9302989 51.0480987,15.1260905 C50.9960159,15.3969314 50.9418121,15.6677724 50.890672,15.9388502 C50.2774618,19.1749739 50.3524045,19.3778678 52.8047739,21.5730057 C53.1014809,21.8384014 53.3904108,21.9304968 53.7660669,21.8296417 C54.296793,21.6873555 54.8261051,21.5242353 55.3664936,21.4366382 C56.0857548,21.3201576 56.9508949,20.6814085 57.4764363,21.1215251 C58.3335637,21.8386382 58.7532898,22.9880551 59.2646911,24.0110481 C59.3754554,24.2331187 59.2734108,24.3846382 59.1263535,24.5283449 C59.0419841,24.6107336 58.9472452,24.6827053 58.8647611,24.7667512 C56.2931433,27.3908784 56.298328,27.389458 57.3006274,31.0095887 C57.4212898,31.4447336 57.6399904,31.6705922 58.0858758,31.7565322 C58.7785064,31.8900587 59.4534618,32.1859951 60.1465637,32.2267159 C61.6011115,32.3119456 61.8358376,33.1247053 61.7908248,34.3927336 C61.7180032,36.4415604 61.8346592,36.6418502 59.8581051,37.1364191 C57.8881497,37.629094 57.0364427,38.7626488 56.7065064,40.6277583 C56.5915,41.2773979 56.5660478,41.7392954 57.0996019,42.1933802 C57.6670924,42.6765852 58.1129777,43.3169915 58.7132261,43.7457442 C59.7119904,44.458359 59.5910924,45.1555852 59.0516465,46.1148926 C57.8869713,48.1864473 57.9345764,48.2132 55.6028694,47.6954297 C55.4880987,47.6700975 55.3620159,47.6727018 55.2569076,47.6265357 C53.9536592,47.0526558 53.154742,47.5967053 52.1361815,48.5306806 C50.7252325,49.8238042 50.3912898,50.9843484 51.2246146,52.6740269 C51.5048248,53.2424615 52.0831561,54.0826841 51.5364045,54.6281541 C50.7125064,55.450147 49.637621,56.0190551 48.5353981,56.4549102 C48.2403408,56.5716276 48.0477994,56.2591187 47.8467739,56.0858184 C47.1018248,55.4437548 46.3559331,54.8019279 45.6293662,54.1385569 C45.273742,53.8139739 44.9129331,53.5372141 44.2252516,53.5679915 C45.5860032,51.5411823 47.0520987,49.7736134 48.6233025,48.0943519 C48.8382325,47.8644686 49.2520669,47.7550905 49.5876592,47.7183943 C51.077086,47.5552742 51.9879459,46.6239032 52.6690287,45.411511 C53.2275637,44.4171647 53.7380223,43.3932247 54.2305701,42.3636028 C54.9283854,40.9042813 55.4381369,39.44567 56.8007739,38.2796806 C58.741035,36.6186488 58.0446338,33.6571541 55.6078185,32.7269668 C54.5840732,32.336094 54.411328,31.7120233 54.225621,30.859253 C52.0032643,20.6503943 41.4283344,14.6379138 31.8300159,18.3141541 C26.0082898,20.5438572 22.3577803,24.8950693 20.9840669,31.057412 C20.8108503,31.8360799 20.6131242,32.3368042 19.7298376,32.6187724 C17.9104745,33.1990445 17.1355955,34.7345993 17.3262516,36.9844261" id="Fill-5" fill="#323232" sketch:type="MSShapeGroup"></path>
                <path d="M49.5518847,28.6853753 C50.3595217,28.9195201 50.6079166,28.7840996 50.6977064,28.2566226 C50.7950376,27.6855837 50.5725662,27.4713258 50.0519739,27.3934353 C48.8132987,27.2080608 47.580751,26.9819654 46.3399548,26.8110325 C45.9065599,26.7516085 45.3569803,26.3623929 45.1670312,27.2468876 C44.9685981,28.1685519 45.6129166,28.1576615 46.104286,28.1721032 C47.0002987,28.1981456 46.9845089,28.690347 46.8732732,29.3425908 C46.6081459,30.892824 46.3703561,32.4475555 46.1153624,33.9994459 C46.0276936,34.5333152 45.7800057,35.0361703 46.6812032,35.2018947 C47.6432032,35.378983 47.5889994,34.7866367 47.6804389,34.2051809 C47.8998465,32.8071774 48.1604962,31.4146191 48.3462032,30.0121173 C48.4727573,29.0575449 48.6085025,28.2258452 49.5518847,28.6853753 M33.8549293,32.5408346 C33.8294771,34.3190572 34.5628783,35.3877428 35.8482159,35.5948982 C37.2167446,35.8155484 38.2819675,35.0122587 38.6675217,33.3730078 C38.9460822,32.1873682 39.1572414,30.97687 39.1053943,29.7514565 C39.0462414,28.3510855 38.2430822,27.4114283 37.0560185,27.2523329 C35.821821,27.0866085 34.856286,27.7237004 34.4042732,29.080036 C34.0158911,30.2450784 33.9645153,31.4735696 33.8549293,32.5408346 M44.7572032,31.8689406 C44.660579,30.8393187 44.5861076,29.9370678 44.4852414,29.0374212 C44.4548401,28.7665802 44.3707064,28.4971597 44.2785599,28.2388664 C43.850114,27.0376014 42.9227573,26.3919866 41.7894261,26.4909477 C40.6966299,26.5865943 39.8345535,27.3240678 39.6674643,28.5260431 C39.4426363,30.1383046 39.5772032,31.762877 40.1010949,33.303877 C40.4595471,34.3574106 41.2660057,34.9646721 42.4497701,34.8929371 C43.5642478,34.8254636 44.3426618,34.123029 44.6174516,32.9106367 C44.7034707,32.5301809 44.7232669,32.1343364 44.7572032,31.8689406 M31.5896809,31.4560502 C31.5180376,31.4638629 31.4463943,31.4716756 31.3749866,31.4794883 C30.7759166,30.2884035 30.1829739,29.094241 29.5747127,27.9081279 C29.3706236,27.5103894 29.275649,27.0042198 28.5757127,27.1926721 C27.9000503,27.3742587 28.0181204,27.8567534 28.014114,28.3065767 C28.0028019,29.6420784 28.0101076,30.9775802 28.0101076,32.313082 C27.2041204,31.0360572 26.6154197,29.7502728 26.0875217,28.4396297 C25.795528,27.7144671 25.2907255,27.9434035 24.8241013,28.082612 C24.1762478,28.2757993 24.5438911,28.6946085 24.6909484,29.0194283 C25.6003943,31.0280078 26.5272796,33.0285378 27.4381395,35.0364071 C27.6443497,35.4909654 27.8067255,35.8385131 28.4673051,35.6846261 C29.1309484,35.5295555 29.2452478,35.1786933 29.2348783,34.598658 C29.2113115,33.2925131 29.2275726,31.9854212 29.2275726,30.6788028 C30.1019038,31.8320078 30.7181777,33.0100714 31.2972159,34.2063647 C31.5324134,34.6924106 31.7680822,34.9322375 32.3787,34.7736155 C32.9919102,34.6145201 33.0647318,34.2724177 33.0508274,33.7458876 C32.9945025,31.6177498 32.9815408,29.4881915 32.9054197,27.3605272 C32.8919866,26.9848064 33.1997701,26.3029689 32.3523051,26.3399018 C31.6490694,26.3704424 31.2993369,26.6628276 31.3709803,27.4545166 C31.4911713,28.7840996 31.5215726,30.1217322 31.5896809,31.4560502 M37.5947573,36.9644919 C32.6386427,36.9330042 27.7077446,36.6481951 22.8475471,35.5787993 C22.1860248,35.4329618 21.7552223,35.2674742 21.756872,34.3969477 C21.7754898,23.6395413 32.5684134,15.8102481 42.6854389,19.2466615 C48.8434643,21.3385767 53.2712096,27.4646968 53.4840185,34.0853859 C53.5139484,35.0195979 53.2448146,35.3877428 52.3436172,35.5814035 C47.478235,36.6264141 42.5506363,36.929453 37.5947573,36.9644919" id="Fill-7" fill="#323232" sketch:type="MSShapeGroup"></path>
                <path d="M27.0189318,43.8593837 C26.9769828,42.9365357 27.4254605,42.4476488 28.1678172,41.980306 C27.2670911,41.7262742 26.9840529,41.1090693 26.6642503,40.1227724 C26.3074478,41.2631929 25.4995752,41.0079774 24.7294096,41.1826982 C25.0716006,41.7527901 25.3044414,42.2712707 24.9928873,42.8676417 C24.8498363,43.1415604 25.0652376,43.3392459 25.3499255,43.2388643 C25.9732694,43.0186876 26.3630656,43.4498078 27.0189318,43.8593837 M48.4056389,40.3654403 C49.4732185,41.454723 46.0998554,41.4177901 47.976486,42.6289986 C48.3193841,44.7199668 49.6212185,42.3572106 50.271193,43.2019314 C50.0319892,42.4469385 50.0843076,41.7864085 50.4776389,41.0846841 C49.7077089,41.0785286 49.0360529,41.0695322 48.4056389,40.3654403 M30.0185242,42.3422954 C30.0694287,41.9601823 29.9303841,41.4511717 30.4806707,41.2823696 C30.9406962,41.1415039 31.3476962,41.2951541 31.5364669,41.7748078 C31.7044987,42.2021399 32.0292503,42.2826346 32.3865242,42.1581046 C32.6705051,42.0591435 32.5950911,41.7641541 32.5060083,41.5472919 C32.2029382,40.8110021 31.5725242,40.5190905 30.8501994,40.3917194 C30.1820783,40.2735816 29.5950274,40.4426205 29.2068809,41.038518 C28.3459828,42.3593413 29.3760911,44.7568996 30.9126516,45.0159032 C31.4799064,45.1115498 32.026658,45.0398148 32.4082057,44.5585039 C32.6452885,44.2594898 32.9429382,43.8662495 32.5029446,43.5416664 C32.2052949,43.3222 31.9064669,43.4043519 31.6330911,43.7895428 C31.0568809,44.6006452 30.5598554,44.1475074 30.2395815,43.5286452 C30.0680146,43.1971965 30.0899318,42.7651293 30.0185242,42.3422954 M42.7389828,42.9540551 L42.6696962,42.9540551 C42.6696962,43.5026028 42.6666325,44.0513873 42.6708745,44.599935 C42.6727599,44.8684085 42.7839955,45.0485746 43.0811739,45.0485746 C43.3236771,45.0485746 43.6637471,45.002882 43.6340529,44.7486134 C43.4799255,43.4346558 44.4690274,43.4673272 45.2851484,43.1799138 C46.0974987,42.8943943 46.569072,42.2156346 46.3619191,41.3275887 C46.160658,40.4653484 45.4237217,40.3947972 44.6731166,40.445935 C42.9202121,40.56573 42.9202121,40.5609951 42.7858809,42.3671541 C42.7715051,42.5627088 42.7547726,42.7585004 42.7389828,42.9540551 M33.0515815,44.4872424 C32.9832376,44.8816664 33.0289573,45.0533095 33.2761739,45.1004226 C33.5537917,45.1536912 33.774142,45.139723 33.9973204,44.8785887 C34.734728,44.0146912 35.1049637,44.0355251 35.8609892,44.9789703 C36.1046707,45.2831929 36.3952503,45.3535074 36.6820592,45.2202177 C37.0423968,45.052836 36.806021,44.7306205 36.7240083,44.4988431 C36.3436389,43.4232919 35.9670401,42.3451364 35.5319955,41.2911293 C35.253435,40.6171046 34.4427344,40.4890233 34.2051803,41.0801859 C33.7366707,42.245465 33.3918873,43.4606982 33.0515815,44.4872424 M39.6283904,43.7474014 C39.2725306,42.7712848 38.9828936,42.0525145 38.7500529,41.3157512 C38.5714159,40.7503943 38.1571102,40.7849597 37.7161739,40.7956134 C37.3605497,40.8038996 37.2335242,41.0022954 37.2344669,41.3223802 C37.2375306,42.4651682 37.2405943,43.6081929 37.2509637,44.7512177 C37.2540274,45.0665675 37.3883586,45.2656735 37.7435115,45.2720657 C38.1766707,45.2794049 38.2662248,45.0123519 38.2678745,44.6617265 C38.2702312,44.13567 38.2685815,43.6096134 38.2685815,42.9677866 C38.7726771,43.5236735 38.7799828,44.1505852 39.0370975,44.6666982 C39.1582312,44.9103131 39.2032439,45.2138254 39.5473204,45.2391576 C39.9611548,45.2701717 40.0521229,44.935882 40.1704287,44.6463378 C40.3945497,44.0975534 40.6123076,43.5461647 40.950021,42.7035746 C40.950021,43.528882 40.9467217,43.9985922 40.9511994,44.4683025 C40.9540274,44.7767866 40.8870975,45.1361717 41.3631484,45.1600834 C41.8231739,45.1832848 41.9650465,44.9257018 41.9798936,44.5007371 C42.0124159,43.5556346 42.0925433,42.6117159 42.1128108,41.6663767 C42.1201166,41.320723 42.3701611,40.8015322 41.7673204,40.706359 C41.2479064,40.6242071 40.764314,40.6923908 40.5548045,41.3408466 C40.3191357,42.0700339 40.0075815,42.7745993 39.6283904,43.7474014 M23.4473713,44.8949244 C23.8430592,44.8388148 24.1063013,44.8014085 24.3853331,44.7616346 C24.3518682,44.6711965 24.3351357,44.5646594 24.3080338,44.5618184 C23.1815369,44.4458113 22.6324287,43.7002883 22.2732694,42.722988 C22.1243268,42.3172 21.9060975,41.9376912 21.7458427,41.5354544 C21.483779,40.8772919 20.9975943,40.1876417 21.0567471,39.5538643 C21.1293331,38.776617 22.2501739,39.4222318 22.7587471,38.6819173 C22.1620338,38.5917159 21.6204669,38.5351329 21.0899764,38.4243343 C20.1159573,38.2214403 19.1765815,37.9458643 18.6515115,36.9688007 C17.9218809,35.611518 18.6385497,34.1758714 20.3341866,33.6363201 C20.4836006,33.9895498 20.4746452,34.3726099 20.2222439,34.625458 C19.2392694,35.610571 20.078486,35.888041 20.8076452,36.1297618 C22.6764987,36.7490975 24.6068618,37.1222141 26.5560783,37.358253 C35.3406325,38.4224403 44.0976134,38.4645816 52.7944987,36.5632495 C53.1390465,36.4877265 53.4807662,36.3949208 53.820365,36.298564 C55.2600656,35.8904085 55.2499318,35.8923025 54.7804796,34.5058996 C54.6958745,34.2561293 54.7326389,33.9651647 54.712607,33.6831965 C55.9263013,33.9133166 56.6941102,34.6604968 56.7506707,35.7272883 C56.8088809,36.83267 56.268728,37.5905039 55.2723204,38.0526382 C54.3678236,38.4721576 53.377072,38.4873095 52.4183713,38.6745781 C52.4308618,39.0434332 52.7447726,39.0744473 52.9085624,39.0656876 C54.382435,38.9875604 54.235142,39.7333201 53.7444796,40.6682424 C53.3403076,41.4390975 53.2908172,42.3995887 52.2654223,42.8153201 C51.6302949,43.0729032 52.7716389,43.0871081 52.4850656,43.5130198 C52.0952694,44.0928184 51.897779,44.8122989 51.0960338,45.0132989 C50.7267408,45.1061046 50.312435,45.1037371 50.0053586,45.4108007 C50.2985306,45.7150233 50.6885624,45.4841929 51.0609191,45.6494438 C50.8516452,46.1688714 50.4293268,46.3568502 49.9337153,46.4863519 C41.7051038,48.6369809 33.4793204,48.6391117 25.2457599,46.5043449 C24.3888682,46.2818007 23.9561803,45.6816417 23.4473713,44.8949244" id="Fill-9" fill="#323232" sketch:type="MSShapeGroup"></path>
                <g id="Group-13">
                    <mask id="mask-2" sketch:name="Clip 12" fill="white">
                        <use xlink:href="#path-1"></use>
                    </mask>
                    <g id="Clip-12"></g>
                    <path d="M28.5599936,48.4799216 C34.6166815,49.5130947 40.5826369,49.5289569 46.6426242,48.438964 C41.8255541,53.7643986 38.9294204,60.0048686 37.3938025,67.0000947 C35.923465,60.1035929 33.2276497,53.8484445 28.5599936,48.4799216" id="Fill-11" fill="#1D1C1B" sketch:type="MSShapeGroup" mask="url(#mask-2)"></path>
                </g>
                <path d="M20.3029605,61.5526869 C20.2214191,61.0413088 19.8938395,60.7176728 19.3609924,60.7638389 C18.9004955,60.8040862 18.5724446,61.1083088 18.577865,61.6258424 C18.5837567,62.1947505 18.9403236,62.5299873 19.4552599,62.5157823 C19.9652471,62.5020509 20.3020178,62.1585279 20.3029605,61.5526869 M18.0938013,61.1397965 C18.0615146,60.6364678 17.8300879,60.2612205 17.281451,60.1935102 C16.7742917,60.1307717 16.4405847,60.4397293 16.3446675,60.8909731 C16.2301325,61.4288671 16.5303745,61.8048247 17.0606293,61.9047329 C17.622228,62.0105597 17.917521,61.6604078 18.0938013,61.1397965 M19.2900561,64.8300049 C19.7976866,64.7693972 20.1363427,64.4879025 20.1278586,63.9246763 C20.1205529,63.4272664 19.8153618,63.0965279 19.3320051,63.0707223 C18.7911452,63.0418389 18.4268013,63.3827576 18.3931006,63.9128389 C18.357986,64.4630438 18.7107822,64.7637152 19.2900561,64.8300049 M17.9059732,63.5811534 C17.8333873,63.0302382 17.5355019,62.684111 16.9920497,62.6777187 C16.5009159,62.6715633 16.1648522,62.9850191 16.1332726,63.4755633 C16.0979223,64.0205597 16.4146611,64.402436 16.956228,64.4336869 C17.5013299,64.4651746 17.7923809,64.0908742 17.9059732,63.5811534 M10.7444701,54.9691675 C10.511158,55.3503336 9.71082675,55.5307364 10.3308713,56.1505456 C10.7645019,56.58427 10.8220051,56.8754714 10.3492535,57.2658707 C10.0226166,57.5348177 10.1180624,57.7822205 10.3963873,58.0466693 C10.6914446,58.3269802 10.9692981,58.4995703 11.2615274,58.0838389 C11.6430752,57.5414466 11.991158,57.6297541 12.3649287,58.0878636 C12.6953363,58.4929413 12.9889796,58.4159979 13.324572,58.045012 C13.6281134,57.7093018 13.6655847,57.4498247 13.2974701,57.1680933 C12.8725592,56.8430367 12.625107,56.510641 13.1671452,56.0570297 C13.4999096,55.7781392 13.3606293,55.5170049 13.0801834,55.2788353 C12.8346166,55.0704961 12.5678395,54.7989449 12.294228,55.166853 C11.8596548,55.7513866 11.4983745,55.6183336 11.102451,55.1469661 C11.036228,55.0681286 10.9037822,55.0454007 10.7444701,54.9691675 M21.6684255,54.438376 C21.5557758,55.9100085 21.022693,57.0438 20.0727121,57.8821286 C19.3301197,58.5376869 19.5264318,58.8956516 20.1544892,59.3942452 C21.6172854,60.5547894 22.4046548,61.997065 21.8991452,63.9303583 C21.4091898,65.8030438 19.7656357,66.9467788 17.7322854,66.8319555 C15.9466229,66.7308636 14.4293873,65.3020827 14.1687376,63.4758 C13.9823236,62.1691816 12.8746803,61.1161216 11.5334892,60.9695739 C9.77657834,60.7778071 8.37034268,59.5639943 8.04087771,57.9548106 C7.66357197,56.1129025 8.4170051,54.4057046 9.99127261,53.5339943 C11.4863554,52.7063194 13.3813682,52.9733724 14.6584573,54.1947611 C14.885642,54.4118601 15.0781834,54.6734678 15.328935,54.8562382 C15.9600561,55.3171887 16.3069605,56.2549519 17.2022662,56.2248848 C17.6290624,56.2104431 18.6228777,53.4925633 18.5392153,52.8817505 C18.3890943,51.7863124 19.1524255,50.7252028 20.1483618,50.9309378 C21.1487758,51.1378565 22.0459669,50.9955703 22.9832217,50.6977399 C22.9009732,52.1715032 21.6439159,53.8157258 20.3347758,54.2305102 C19.8049924,54.3981286 18.0485529,56.90033 18.1642662,57.3735915 C18.2524064,57.7351074 18.5689096,57.9519696 18.8691516,58.1276375 C19.170572,58.3040155 19.3897439,58.0509307 19.576158,57.8617682 C20.2480497,57.178747 20.6927567,56.3567541 21.024814,55.4601852 C21.1388777,55.1521746 21.0903299,54.7475703 21.6684255,54.438376" id="Fill-14" fill="#323232" sketch:type="MSShapeGroup"></path>
                <path d="M55.2963115,0.260684452 C54.6713178,0.691567845 54.0163943,1.0239636 53.5113561,1.58458551 C52.5274389,2.67647244 52.5656172,4.1339 53.6607701,5.10338763 C54.6604771,5.98811908 55.5564898,7.20927102 56.7308274,7.63281519 C59.5357573,8.64444417 61.2914898,10.9638753 63.5793624,12.5998117 C65.1559866,13.7269742 64.9898401,14.9594901 63.2847764,15.9829565 C62.7080949,16.3293205 62.3201841,16.0421438 61.9296809,15.6910449 C60.9075854,14.7715113 59.8765344,13.8607375 58.8831904,12.9101898 C58.4335344,12.4795431 58.1674643,12.49943 58.0149866,13.1076385 C57.8401204,13.8067587 57.5233815,14.4324866 57.8733497,15.251165 C58.3208847,16.2992534 57.6068083,17.4702145 56.5635025,17.3684124 C55.1285153,17.2282569 54.1113688,17.9984018 52.9641331,18.5433982 C52.6186427,18.7074654 52.2220121,19.2396774 51.879114,18.6527763 C51.5819357,18.1437657 51.7172096,17.5784088 52.2347382,17.2263629 C52.6207637,16.9633346 53.0529803,16.7639919 53.4764771,16.5615714 C54.1172605,16.2554548 54.7389548,15.9775113 54.8549038,15.124741 C54.8904898,14.8617127 55.1829548,14.4883594 55.4259293,14.4234901 C56.7386045,14.0723912 56.6733242,12.8512392 57.0784389,11.9283912 C57.1965089,11.6592074 57.1635153,11.4307445 56.9580121,11.1760025 C55.6547637,9.5604265 54.3871013,7.94461378 52.7298783,6.6259212 C51.7933306,5.88063498 50.994649,6.13490353 50.1789994,6.39367032 C49.6758465,6.55347597 49.0011268,7.02318622 49.5448146,7.83168445 C49.7041268,8.06843357 49.6298911,8.26896007 49.4889611,8.47943004 C49.2907637,8.77655018 48.9855726,8.96310848 48.6895726,8.79406961 C47.9837446,8.39088587 47.2272478,7.97136643 46.9708401,7.13374806 C46.8596045,6.77081166 47.2100439,6.43249717 47.5908847,6.41900247 C48.1246745,6.40006254 48.3683561,6.09749717 48.5172987,5.67347951 C49.1267382,3.94165972 50.4438911,2.72358551 51.6205854,1.42122862 C52.5781076,0.361539576 53.8945535,0.116030742 55.2963115,0.260684452" id="Fill-16" fill="#323232" sketch:type="MSShapeGroup"></path>
                <path d="M17.8997752,38.0710572 C19.2404949,38.9148311 20.1105841,40.1011809 20.6292911,41.6523611 C21.0374694,42.8730396 21.7178452,44.0058841 22.3169153,45.1574318 C23.0404185,46.5483329 24.0504949,47.5779548 25.7180873,47.7552799 C26.092565,47.7950537 26.4642146,47.9176898 26.7500809,48.2526898 C28.1534885,49.8966756 29.5017497,51.5801986 30.7613994,53.489817 C29.462393,53.4282622 29.0256987,54.4810855 28.3344822,55.1404318 C26.7418325,56.6587039 26.7986287,56.635029 24.8791064,55.5447993 C23.8598389,54.965711 23.3406605,54.3584495 23.8395713,53.1555272 C24.6443803,51.214658 24.3634631,49.6426438 22.6739535,48.122241 C21.6740108,47.2218841 21.0014121,46.8288806 19.6906223,47.2789406 C17.1133484,48.1636721 17.1069854,48.0756014 15.8683102,45.580029 C15.5442656,44.9275484 15.5338962,44.4604424 16.0686287,43.9156827 C16.8656605,43.1043435 17.7543675,42.3100502 18.2923994,41.3351173 C18.8806287,40.2687993 17.6096669,39.2095837 17.8997752,38.0710572" id="Fill-18" fill="#323232" sketch:type="MSShapeGroup"></path>
                <path d="M9.42387643,10.8414523 C8.88867261,10.8944841 8.49581274,11.1667456 8.47860892,11.7709293 C8.46258344,12.3275265 8.81750064,12.6272509 9.33997834,12.669629 C9.96143694,12.7200565 10.2951439,12.3104806 10.3168255,11.7638269 C10.3368573,11.256947 10.001972,10.910583 9.42387643,10.8414523 M17.3932522,2.48633922 C17.2723541,2.55310247 17.1337809,2.62294346 17.0015707,2.70343816 C14.3894178,4.29273498 11.7864561,5.89765724 9.16016306,7.4625689 C8.57758981,7.80964311 8.67044331,8.12878092 8.9574879,8.59849117 C9.98170446,10.2742014 10.9910739,11.9591449 11.9839465,13.6533216 C12.2658064,14.1339223 12.5021822,14.3349223 13.072265,13.9802721 C15.6351631,12.3857668 18.219507,10.8260636 20.810921,9.27867138 C21.324679,8.97208127 21.4300229,8.70597527 21.0939592,8.17139576 C20.0285006,6.47532509 19.0115898,4.74847703 17.9715834,3.03607067 C17.8351312,2.81163251 17.7547682,2.5185371 17.3932522,2.48633922 M23.2625834,18.1818587 C22.6248637,19.3435866 21.8594115,19.6250813 20.7296153,18.8130318 C20.0836471,18.3487668 19.3714561,18.0466749 18.4473987,18.1536855 C17.4116344,18.2737173 16.5721822,17.1082014 16.9869592,16.1209576 C17.4121057,15.1088551 17.0022777,14.3005936 16.813507,13.396212 C16.6381694,12.5562261 16.2735898,12.733788 15.7600675,13.054583 C14.5946854,13.7825866 13.4222331,14.5004099 12.2358764,15.1933746 C10.8807809,15.9848269 10.3260166,15.8349647 9.54288917,14.5245583 C8.6954242,13.1061943 7.84253885,11.6911449 7.00379363,10.2675724 C6.27180637,9.02511307 6.40213121,8.4005689 7.65612484,7.63160777 C11.1034879,5.51814841 14.5711185,3.43783392 18.0286153,1.34071025 C18.8843287,0.821756184 19.6405898,0.955992933 20.1663669,1.78556184 C21.219335,3.44635689 22.2562777,5.12088339 23.210972,6.83944523 C23.6783032,7.68061484 23.3757045,8.44484099 22.5367236,8.95337809 C21.1604178,9.78768198 19.8036726,10.657735 18.399558,11.4418481 C17.7851694,11.7848975 17.6772331,12.1627491 17.9088955,12.7747456 C18.288558,13.7783251 18.405214,14.9547314 19.6860739,15.3188516 C20.1908764,17.1290353 21.960749,17.3705194 23.2625834,18.1818587" id="Fill-20" fill="#323232" sketch:type="MSShapeGroup"></path>
                <path d="M60.3510064,50.5752933 C59.4528726,50.845424 58.5679363,50.8601025 57.9547261,51.7981025 C57.3327962,52.7495972 55.9305669,52.7221343 55.3739172,51.7588021 C54.9417006,51.0116219 54.3032739,50.6688092 53.6511783,50.244318 C53.3891146,50.0736219 52.5671019,50.1318622 53.0568217,49.4419753 C53.3928854,48.9682403 53.7468599,48.3252297 54.5490764,48.8830106 C55.7314268,49.70453 57.2455987,49.5236537 58.4835669,49.592311 C60.2553248,49.6905618 62.2314076,49.0660177 62.9980382,46.902841 C63.2626943,46.1568445 63.6932611,46.029 64.4014459,46.5550565 C64.9710573,46.9778905 65.0707452,47.246364 64.6658662,47.8562297 C62.1833312,51.592841 59.7382675,55.3547845 57.2825987,59.1096254 C57.0179427,59.5139929 56.7400892,59.9136254 56.1872102,59.8695901 C55.3819299,59.8056678 55.1073758,58.9914876 55.650828,58.1443993 C57.0318471,55.9911661 58.4519873,53.8635018 59.8351274,51.7114523 C60.0370955,51.397523 60.380465,51.1352049 60.3510064,50.5752933" id="Fill-22" fill="#323232" sketch:type="MSShapeGroup"></path>
                <path d="M21.146207,50.2444601 C20.549258,50.0962551 20.5141433,49.7581774 20.5438376,49.4643717 C20.5853153,49.0531385 20.2636274,48.3211102 20.9093599,48.3310537 C21.5122006,48.3405237 20.9300987,48.9383152 21.0236592,49.2671597 C21.103551,49.5484177 21.1009586,49.852877 21.146207,50.2444601" id="Fill-24" fill="#323232" sketch:type="MSShapeGroup"></path>
                <path d="M43.0252025,30.6663025 C43.1376166,31.5472459 43.2245783,32.2089597 43.0600815,32.8590728 C42.9370624,33.3455922 42.5800242,33.5830516 42.0874764,33.4258502 C41.5305911,33.2475781 41.6986229,32.8557583 41.887865,32.4866664 C42.1833936,31.9097088 42.4317885,31.3026841 43.0252025,30.6663025" id="Fill-26" fill="#323232" sketch:type="MSShapeGroup"></path>
                <path d="M41.1960121,30.6254869 C41.1960121,30.001653 41.1816363,29.3771088 41.2011968,28.7537484 C41.2129803,28.3796848 41.3694643,28.068123 41.7543115,27.9336495 C42.0455981,27.8318473 42.3022414,27.9282042 42.4999675,28.1353597 C42.8464006,28.4987696 42.5027955,28.7876035 42.3517318,29.077858 C42.0689293,29.6223809 41.7573752,30.1517519 41.4576045,30.6872784 C41.370407,30.6666813 41.2832096,30.6460841 41.1960121,30.6254869" id="Fill-28" fill="#323232" sketch:type="MSShapeGroup"></path>
                <path d="M35.5474318,31.5041576 C35.6721006,30.7943837 35.7713172,30.0786912 35.931572,29.3769668 C36.0232471,28.9763873 36.2756484,28.6688502 36.746986,28.6641152 C37.0462854,28.6612742 37.2803045,28.785094 37.4092153,29.061617 C37.600107,29.4714297 37.3102344,29.7167018 37.0823427,29.983518 C36.6322153,30.5109951 36.1863299,31.0417866 35.7387949,31.5713943 C35.6749287,31.5489032 35.6112981,31.5266488 35.5474318,31.5041576" id="Fill-30" fill="#323232" sketch:type="MSShapeGroup"></path>
                <path d="M37.2254172,31.3450859 C37.3126146,32.3787325 37.2275382,33.0340541 36.9522771,33.6500753 C36.7248567,34.1588491 36.3046592,34.3709763 35.8130541,34.0724357 C35.3381815,33.7838385 35.5835127,33.3950965 35.8328503,33.0740647 C36.2290096,32.5636336 36.6423726,32.0666972 37.2254172,31.3450859" id="Fill-32" fill="#323232" sketch:type="MSShapeGroup"></path>
                <path d="M44.2873268,42.6069809 C43.7669701,42.6706664 43.8782057,42.3006276 43.8569955,41.9992459 C43.8159892,41.4123449 44.1367344,41.2667442 44.6441293,41.2736099 C45.0544287,41.2797654 45.3419446,41.3855922 45.3011739,41.8650092 C45.2472057,42.4966558 44.756779,42.5416382 44.2873268,42.6069809" id="Fill-34" fill="#323232" sketch:type="MSShapeGroup"></path>
            </g>
        </g>
    </g>
</svg>